<?xml version="1.0" encoding="UTF-8" standalone="no"?>
<!-- Created with Inkscape (http://www.inkscape.org/) -->

<svg
   xmlns:dc="http://purl.org/dc/elements/1.1/"
   xmlns:cc="http://creativecommons.org/ns#"
   xmlns:rdf="http://www.w3.org/1999/02/22-rdf-syntax-ns#"
   xmlns:svg="http://www.w3.org/2000/svg"
   xmlns="http://www.w3.org/2000/svg"
   xmlns:sodipodi="http://sodipodi.sourceforge.net/DTD/sodipodi-0.dtd"
   xmlns:inkscape="http://www.inkscape.org/namespaces/inkscape"
   id="svg2"
   version="1.1"
   inkscape:version="0.48.3.1 r9886"
   width="1742.6625"
   height="1740.325"
   xml:space="preserve"
   sodipodi:docname="veloskopje.svg"><metadata
     id="metadata8"><rdf:RDF><cc:Work
         rdf:about=""><dc:format>image/svg+xml</dc:format><dc:type
           rdf:resource="http://purl.org/dc/dcmitype/StillImage" /><dc:title></dc:title></cc:Work></rdf:RDF></metadata><defs
     id="defs6"><clipPath
       clipPathUnits="userSpaceOnUse"
       id="clipPath18"><path
         d="m 0,0 13941,0 0,13922.6 -13941,0 L 0,0 z"
         id="path20" /></clipPath></defs><sodipodi:namedview
     pagecolor="#ffffff"
     bordercolor="#666666"
     borderopacity="1"
     objecttolerance="10"
     gridtolerance="10"
     guidetolerance="10"
     inkscape:pageopacity="0"
     inkscape:pageshadow="2"
     inkscape:window-width="1280"
     inkscape:window-height="750"
     id="namedview4"
     showgrid="false"
     inkscape:zoom="0.38355412"
     inkscape:cx="798.35266"
     inkscape:cy="1283.0778"
     inkscape:window-x="0"
     inkscape:window-y="26"
     inkscape:window-maximized="1"
     inkscape:current-layer="g10" /><g
     id="g10"
     inkscape:groupmode="layer"
     inkscape:label="ink_ext_XXXXXX"
     transform="matrix(1.25,0,0,-1.25,0,1740.325)"><rect
       style="fill:#ff0000"
       id="rect3163"
       width="627.81232"
       height="552.72516"
       x="266.97668"
       y="-1184.709"
       transform="scale(1,-1)" /><rect
       style="fill:#ffffff"
       id="rect3217"
       width="782.1582"
       height="156.43167"
       x="333.72083"
       y="796.52069"
       transform="matrix(0.8,0,0,-0.8,0,1392.26)" /><g
       id="g3165"
       transform="translate(-11.2,17.6)"
       style="fill:#ffffff"><path
         d="m 418.49262,984.01658 c -58.18589,0 -105.52717,-45.34312 -105.52717,-101.07086 0,-55.72775 47.34128,-101.05249 105.52717,-101.05249 58.1878,0 105.52909,45.32474 105.52909,101.05249 0,55.72774 -47.34129,101.07086 -105.52909,101.07086 l 0,0 z m 0,12.07557 c 65.24227,0 118.12771,-50.6549 118.12771,-113.14643 0,-62.47316 -52.88544,-113.12806 -118.12771,-113.12806 -65.24035,0 -118.1258,50.6549 -118.1258,113.12806 0,62.49153 52.88545,113.14643 118.1258,113.14643"
         style="fill:#ffffff;fill-opacity:1;fill-rule:nonzero;stroke:none"
         id="path22"
         inkscape:connector-curvature="0" /><path
         d="m 769.17389,984.01658 c -58.1878,0 -105.52333,-45.34312 -105.52333,-101.07086 0,-55.72775 47.33553,-101.05249 105.52333,-101.05249 58.19165,0 105.52909,45.32474 105.52909,101.05249 0,55.72774 -47.33744,101.07086 -105.52909,101.07086 l 0,0 z m 0,12.07557 c 65.24227,0 118.12964,-50.6549 118.12964,-113.14643 0,-62.47316 -52.88737,-113.12806 -118.12964,-113.12806 -65.23843,0 -118.12387,50.6549 -118.12387,113.12806 0,62.49153 52.88544,113.14643 118.12387,113.14643"
         style="fill:#ffffff;fill-opacity:1;fill-rule:nonzero;stroke:none"
         id="path24"
         inkscape:connector-curvature="0" /><path
         d="m 562.16302,873.59037 -46.45084,157.77273 184.44657,6.4697 5.49619,-16.4867 -143.49192,-147.75573 z m -129.17383,7.2049 c 0.0844,0.58816 0.13818,1.19469 0.13818,1.80123 0,5.31178 -3.07242,9.90675 -7.60332,12.29613 l 80.20134,130.77277 47.25493,-155.43855 -119.99113,10.56842 z m 335.14649,15.82507 c -1.27233,0 -2.50053,-0.16542 -3.675,-0.4595 -5.1853,9.98026 -13.98227,27.1103 -16.79944,33.85571 -3.77096,9.02451 -24.15905,69.12666 -27.33317,78.50035 l 0.94226,0.3125 c 1.12649,0.3676 1.72523,1.5439 1.33758,2.6283 -0.38765,1.0844 -1.6216,1.6542 -2.74617,1.2866 l -0.30513,-0.1103 -12.79629,39.4984 c 0.95569,0.4411 1.43737,1.5071 1.08043,2.4996 -0.38765,1.0844 -1.61393,1.6726 -2.74618,1.2866 l -0.11706,-0.037 -3.38138,7.2785 8.98887,-1.8196 c 0.0576,0 0.1209,0 0.20151,-0.018 2.3163,-0.2573 13.59269,-1.8012 23.75987,-5.9551 5.08359,-2.0769 9.84094,-4.7971 13.08991,-8.032 3.24705,-3.2716 5.05864,-6.7638 5.0951,-11.3955 0,-0.4044 -0.0173,-0.8639 -0.0518,-1.3234 -0.42412,-5.3485 -1.9229,-9.3369 -4.14517,-12.5534 -3.31422,-4.7971 -8.53598,-8.1423 -15.30066,-10.6236 -6.73398,-2.4629 -14.84585,-3.9333 -23.11316,-5.1279 0,0 -1.89603,-1.5807 -1.23779,-5.2383 0.66015,-3.67598 2.74809,-4.35603 2.74809,-4.35603 11.33972,1.65419 23.10164,3.76783 32.86773,9.09803 4.8725,2.6467 9.2422,6.194 12.48541,10.8809 3.24896,4.6868 5.27933,10.4581 5.79939,17.2035 0.0518,0.6985 0.0806,1.3601 0.0806,2.0402 0.0345,7.885 -3.77096,14.4098 -8.89676,19.0415 -7.71079,7.0028 -18.25218,10.7706 -26.90714,13.0681 -8.65688,2.2791 -15.48105,2.9592 -15.66336,2.9776 l -0.51623,0.037 -16.59219,3.1614 c -1.65615,0 -3.21826,-0.772 -4.1586,-2.0954 -0.94802,-1.3049 -1.16487,-2.9775 -0.5834,-4.4663 l 5.8493,-14.9428 -0.10555,-0.037 c -1.12841,-0.3676 -1.72524,-1.544 -1.33759,-2.6284 0.37998,-1.0476 1.56788,-1.6174 2.68093,-1.3049 l 0.19574,-0.6066 c -0.23604,-0.2022 -0.48168,-0.4043 -0.72156,-0.6249 l -184.3084,-5.4956 -13.15516,41.7591 c -6.18897,2.3894 -9.93113,-1.3417 -9.93113,-1.3417 l 14.57909,-48.1185 -81.62528,-138.05118 c -1.02286,0.22056 -2.08026,0.34922 -3.17412,0.34922 -8.08116,0 -14.63283,-6.28592 -14.63283,-14.02384 0,-7.73792 6.55167,-14.00546 14.63283,-14.00546 5.27165,0 9.87356,2.66508 12.45086,6.6719 l 131.75879,-17.18518 146.77544,151.67064 0.14584,-0.4411 c -0.83671,-0.5147 -1.23779,-1.5072 -0.90579,-2.4445 0.39149,-1.0661 1.6216,-1.6542 2.75001,-1.2683 l 0.65824,0.2206 24.14561,-69.3656 c 0,0 14.46011,-28.87477 22.6852,-42.93536 -3.32381,-2.57318 -5.45781,-6.50647 -5.45781,-10.91764 0,-7.73792 6.55359,-14.00546 14.63667,-14.00546 8.08116,0 14.63283,6.26754 14.63283,14.00546 0,7.73792 -6.55167,14.02384 -14.63283,14.02384"
         style="fill:#ffffff;fill-opacity:1;fill-rule:nonzero;stroke:none"
         id="path26"
         inkscape:connector-curvature="0" /><path
         d="m 559.5032,888.66186 c -13.69633,0 -24.84415,-10.67871 -24.84415,-23.80193 0,-13.12322 11.14782,-23.78354 24.84415,-23.78354 13.69825,0 24.84031,10.66032 24.84031,23.78354 0,13.12322 -11.14206,23.80193 -24.84031,23.80193 l 0,0 z m 0,12.11232 c 20.70665,0 37.49842,-16.08238 37.49842,-35.91425 0,-19.83187 -16.79177,-35.91425 -37.49842,-35.91425 -20.71049,0 -37.49843,16.08238 -37.49843,35.91425 0,19.83187 16.78794,35.91425 37.49843,35.91425"
         style="fill:#ffffff;fill-opacity:1;fill-rule:nonzero;stroke:none"
         id="path28"
         inkscape:connector-curvature="0" /><path
         d="m 528.60634,862.43379 c 0,0 19.38058,1.08441 21.0636,5.3853 1.68493,4.30089 -8.70678,19.37238 -8.70678,19.37238 l 5.33883,2.95915 c 0,0 7.01992,-16.68891 12.63892,-16.68891 5.62093,0 15.44843,16.1559 15.44843,16.1559 l 5.33883,-4.30089 c 0,0 -12.64277,-12.64535 -12.08048,-17.22193 0.56612,-4.57659 19.94478,-10.7706 19.94478,-10.7706 l -2.24721,-5.91832 -11.2361,1.89313 24.71941,-36.59431 9.27097,-1.87474 0.84055,-5.661 -3.65389,-3.49218 -22.74853,-2.68346 -4.21233,4.55821 1.12073,5.3853 5.61708,2.15044 -23.87502,33.63515 -0.28402,-12.36964 -7.3001,0 c 0,0 3.0916,19.09667 -0.56229,21.52281 -3.64813,2.40777 -22.75237,-2.95915 -22.75237,-2.95915 l -1.68301,7.51736"
         style="fill:#ffffff;fill-opacity:1;fill-rule:nonzero;stroke:none"
         id="path30"
         inkscape:connector-curvature="0" /><path
         d="m 419.02036,894.76397 141.38288,4.72362"
         style="fill:#ffffff;fill-opacity:1;fill-rule:nonzero;stroke:none"
         id="path32"
         inkscape:connector-curvature="0" /><path
         d="m 418.96087,896.39978 141.3848,4.72362 0.11514,-3.28999 -141.37904,-4.72363 -0.1209,3.29 0,0"
         style="fill:#ffffff;fill-opacity:1;fill-rule:nonzero;stroke:none"
         id="path34"
         inkscape:connector-curvature="0" /><path
         d="M 549.94052,831.50048 418.62311,870.52093"
         style="fill:#ffffff;fill-opacity:1;fill-rule:nonzero;stroke:none"
         id="path36"
         inkscape:connector-curvature="0" /><path
         d="m 418.11648,868.95864 1.01327,3.12458 131.31549,-39.02045 -1.01519,-3.14296 -131.31357,39.03883 0,0"
         style="fill:#ffffff;fill-opacity:1;fill-rule:nonzero;stroke:none"
         id="path38"
         inkscape:connector-curvature="0" /><path
         d="m 482.58537,1081.871 c -2.51972,-0.055 -4.68826,0.2941 -5.64395,1.985 l 3.63661,0.2757 c 0,-0.018 0.002,-0.018 0.002,-0.018 0.59875,0.037 2.02077,0.1471 2.05532,0.1471 -0.008,0 -0.0115,0.018 -0.0154,0.018 9.94265,0.4412 17.66879,2.4629 26.34677,3.2717 -2.32206,-1.691 -3.45239,-2.4997 -7.37302,-3.4003 0.0115,-0.1103 -12.23017,-2.0953 -19.00829,-2.2791 z m -27.19115,14.1708 c 1.38939,-6.1572 11.096,-10.6603 18.08713,-11.7814 1.8423,-1.0293 2.06107,-3.676 4.66907,-4.0252 4.61534,-0.6433 21.01563,1.1395 26.71139,3.0694 3.87075,1.305 6.87983,3.7863 10.54908,5.1647 2.99949,1.1212 8.17135,2.1321 11.96533,1.7645 2.13975,-0.2205 4.26991,-2.1872 7.04295,-2.3342 2.8191,-0.1287 5.63052,0.533 8.23469,1.5071 1.5103,0.5698 3.04746,1.2498 4.47524,2.0034 0.55269,0.2757 0.83479,0.6066 0.94034,0.9558 0.22069,0.6984 -0.33967,1.5255 -0.81752,2.3894 -0.40684,0.7168 -0.87317,1.4152 -1.43929,2.0585 -1.16871,1.2756 -2.70012,2.1302 -4.37354,2.6688 -4.05689,1.3104 -8.63961,1.2737 -12.86729,1.2332 -2.73466,-0.024 -5.45589,-0.1819 -8.18863,-0.2848 -7.12931,-0.2739 -15.44267,-0.5974 -22.57006,-0.5827 -11.52012,0.028 -20.24416,1.1763 -31.0312,2.2938 -5.59405,0.5827 -13.11293,1.5844 -11.38769,-6.1003"
         style="fill:#ffffff;fill-opacity:1;fill-rule:nonzero;stroke:none"
         id="path40"
         inkscape:connector-curvature="0" /><path
         d="m 711.68846,996.71707 c 11.32821,1.65419 23.0172,3.76783 32.65472,9.00613 l 0,0 0.62178,-1.0476 c -9.89659,-5.38535 -21.7276,-7.49903 -33.08075,-9.15322 l 0,0 -0.19575,1.19469 0,0"
         style="fill:#ffffff;fill-opacity:1;fill-rule:nonzero;stroke:none"
         id="path42"
         inkscape:connector-curvature="0" /><path
         d="m 707.49532,1006.9179 c 8.25387,1.1763 16.32544,2.6651 22.98074,5.0912 l 0,0 0.45481,-1.1212 c -6.8165,-2.4996 -14.96099,-3.9884 -23.24557,-5.1831 l 0,0 -0.18998,1.2131 0,0"
         style="fill:#ffffff;fill-opacity:1;fill-rule:nonzero;stroke:none"
         id="path44"
         inkscape:connector-curvature="0" /></g><rect
       style="fill:#ff0000"
       id="rect3129"
       width="627.81232"
       height="112.63078"
       x="267.46243"
       y="-745.1004"
       transform="scale(1,-1)" /><text
       xml:space="preserve"
       style="font-size:32px;font-style:normal;font-weight:normal;line-height:125%;letter-spacing:0px;word-spacing:0px;fill:#ffffff;fill-opacity:1;stroke:none;font-family:Sans"
       x="320.92078"
       y="-660.15503"
       id="text3125"
       sodipodi:linespacing="125%"
       transform="scale(1,-1)"><tspan
         sodipodi:role="line"
         id="tspan3127"
         x="320.92078"
         y="-660.15503"
         style="font-size:80px;font-style:normal;font-variant:normal;font-weight:bold;font-stretch:normal;fill:#ffffff;font-family:Droid Sans Mono;-inkscape-font-specification:Droid Sans Mono Bold">#ВЕЛОСКОПЈЕ</tspan></text>
</g></svg>